<svg role="img" viewBox="0 0 64 64" xmlns="http://www.w3.org/2000/svg"><path fill="#E30B5C" d="M 0 0 L 64 0 L 64 64 L 0 64 L 0 0 Z"></path><path d="M 37.358 30.422 C 37.416 31.344 37.521 32.194 37.666 32.953 C 35.72 33.309 35.642 31.391 37.358 30.422 Z M 22.811 30.956 L 26.141 30.956 L 24.472 26.178 L 22.811 30.956 Z M 55.396 30.063 C 55.396 41.863 42.271 52.884 24.264 48.503 C 20.992 50.506 13.78 52.529 8.709 53.446 C 10.602 49.718 12.702 44.598 12.595 41.03 C 10.045 37.985 8.604 34.06 8.604 30.063 C 8.604 18.792 19.643 10.553 32 10.553 C 44.281 10.553 55.396 18.732 55.396 30.063 Z M 30.54 35.899 L 25.724 23.226 L 23.186 23.226 L 18.352 35.899 L 21.066 35.899 L 22.109 32.974 L 26.863 32.974 L 27.91 35.899 L 30.54 35.899 Z M 43.87 28.223 C 43.99 27.749 44.065 27.392 44.133 27.043 L 41.988 26.626 L 41.776 27.601 C 41.052 27.496 40.28 27.482 39.502 27.56 C 39.52 27.037 39.551 26.525 39.598 26.031 L 41.994 26.031 L 41.994 24 L 39.886 24 C 39.992 23.483 40.079 23.173 40.167 22.879 L 38.071 22.251 C 37.917 22.764 37.789 23.267 37.66 24 L 35.27 24 L 35.27 26.031 L 37.399 26.031 C 37.344 26.688 37.309 27.369 37.299 28.055 C 34.948 28.919 33.95 30.566 33.95 32.058 C 33.95 33.82 35.342 35.372 37.541 35.173 C 40.272 34.924 42.097 32.861 43.166 30.325 C 44.271 30.962 44.735 32.032 44.318 33.025 C 43.934 33.943 42.797 34.817 40.629 34.772 L 40.629 36.957 C 43.035 36.994 45.402 36.08 46.332 33.871 C 47.237 31.713 46.201 29.354 43.87 28.223 Z M 39.689 31.812 C 40.261 31.221 40.707 30.471 41.048 29.716 C 40.555 29.675 40.031 29.689 39.508 29.757 C 39.541 30.494 39.602 31.182 39.689 31.812 Z" style="fill: rgb(255, 255, 255);"></path></svg>
